<?xml version="1.0" encoding="utf-8"?>
<!-- Generator: Adobe Illustrator 15.1.0, SVG Export Plug-In . SVG Version: 6.00 Build 0)  -->
<!DOCTYPE svg PUBLIC "-//W3C//DTD SVG 1.1//EN" "http://www.w3.org/Graphics/SVG/1.1/DTD/svg11.dtd">
<svg version="1.1"
	 id="svg15466" xmlns:cc="http://creativecommons.org/ns#" xmlns:sodipodi="http://sodipodi.sourceforge.net/DTD/sodipodi-0.dtd" xmlns:rdf="http://www.w3.org/1999/02/22-rdf-syntax-ns#" xmlns:dc="http://purl.org/dc/elements/1.1/" xmlns:inkscape="http://www.inkscape.org/namespaces/inkscape" xmlns:svg="http://www.w3.org/2000/svg" sodipodi:docname="fork.svg" inkscape:version="0.48.1 r9760"
	 xmlns="http://www.w3.org/2000/svg" xmlns:xlink="http://www.w3.org/1999/xlink" x="0px" y="0px" width="100px" height="100px"
	 viewBox="0 0 100 100" enable-background="new 0 0 100 100" xml:space="preserve">
<path fill="#FCFCFC" d="M49.99,0C22.375,0,0,22.385,0,50s22.375,50,49.99,50C77.604,100,100,77.615,100,50S77.604,0,49.99,0z
	 M93.697,35.698c0.25-0.067,0.505-0.092,0.751-0.083c1.063,0.042,2.021,0.771,2.312,1.854c0.357,1.333-0.426,2.705-1.76,3.062
	c-1.334,0.357-2.706-0.438-3.062-1.771C91.58,37.426,92.363,36.055,93.697,35.698z M88.512,24.875
	c0.372-0.216,0.783-0.323,1.188-0.333c0.886-0.023,1.754,0.428,2.229,1.25c0.69,1.196,0.279,2.727-0.916,3.417
	s-2.728,0.278-3.416-0.917C86.902,27.096,87.314,25.565,88.512,24.875z M80.698,15.76c0.487-0.488,1.131-0.729,1.771-0.729
	c0.641,0,1.272,0.241,1.762,0.729c0.977,0.977,0.977,2.565,0,3.542c-0.978,0.977-2.557,0.977-3.531,0
	C79.723,18.326,79.723,16.737,80.698,15.76z M91.834,50c0,0.566-0.021,1.136-0.042,1.698l-31.25,2.958l13.364-38.979
	C84.74,23.238,91.834,35.788,91.834,50z M70.792,8.99c0.476-0.822,1.342-1.273,2.229-1.25c0.401,0.011,0.812,0.118,1.188,0.333
	c1.195,0.69,1.607,2.221,0.917,3.417c-0.69,1.195-2.222,1.607-3.417,0.917C70.514,11.717,70.102,10.185,70.792,8.99z M59.469,5
	c0.291-1.083,1.247-1.812,2.312-1.854c0.246-0.01,0.501,0.027,0.751,0.094c1.334,0.357,2.128,1.718,1.771,3.052
	c-0.355,1.334-1.729,2.128-3.062,1.771S59.111,6.334,59.469,5z M50,1.583c1.381,0,2.5,1.119,2.5,2.5s-1.119,2.5-2.5,2.5
	s-2.5-1.119-2.5-2.5S48.619,1.583,50,1.583z M37.469,3.24c0.25-0.067,0.504-0.104,0.75-0.094l0,0
	C39.284,3.188,40.241,3.917,40.531,5c0.358,1.334-0.438,2.705-1.771,3.062s-2.705-0.437-3.062-1.771
	C35.34,4.958,36.135,3.597,37.469,3.24z M49.989,8.167c8.229,0,15.905,2.376,22.374,6.479L59.302,43.198L32.219,12.125
	C37.615,9.586,43.631,8.167,49.989,8.167z M57.177,50l-3.583,6.219h-7.188L42.823,50l3.583-6.219h7.188L57.177,50z M25.792,8.073
	c0.374-0.215,0.784-0.322,1.188-0.333c0.886-0.023,1.754,0.428,2.229,1.25c0.691,1.195,0.279,2.726-0.917,3.417
	c-1.196,0.691-2.726,0.279-3.417-0.917C24.184,10.294,24.596,8.763,25.792,8.073z M15.771,15.76
	c0.488-0.488,1.121-0.729,1.761-0.729c0.64,0,1.283,0.241,1.771,0.729c0.976,0.977,0.976,2.565,0,3.542
	c-0.977,0.977-2.555,0.977-3.532,0C14.794,18.326,14.794,16.737,15.771,15.76z M30.573,12.948L48.76,38.542L8.323,46.469
	C9.543,31.886,18.242,19.428,30.573,12.948z M8.073,25.792c0.475-0.822,1.343-1.273,2.229-1.25c0.403,0.011,0.814,0.118,1.188,0.333
	c1.195,0.69,1.606,2.221,0.916,3.417c-0.69,1.196-2.221,1.607-3.416,0.917C7.793,28.518,7.382,26.987,8.073,25.792z M3.24,37.469
	c0.29-1.084,1.247-1.812,2.312-1.854l0,0c0.246-0.011,0.5,0.017,0.75,0.083c1.334,0.358,2.118,1.729,1.761,3.062
	C7.706,40.095,6.333,40.888,5,40.531C3.666,40.174,2.882,38.802,3.24,37.469z M1.583,50c0-1.38,1.12-2.5,2.5-2.5s2.5,1.12,2.5,2.5
	c0,1.381-1.12,2.5-2.5,2.5S1.583,51.381,1.583,50z M6.292,64.302c-1.333,0.357-2.705-0.437-3.062-1.771S3.666,59.826,5,59.469
	c0.25-0.066,0.504-0.093,0.75-0.083c1.065,0.042,2.022,0.771,2.312,1.854C8.419,62.574,7.625,63.945,6.292,64.302z M11.49,75.125
	c-1.196,0.689-2.727,0.279-3.417-0.917c-0.69-1.194-0.279-2.726,0.917-3.416c0.336-0.194,0.691-0.306,1.052-0.334
	c0.121-0.01,0.245-0.01,0.365,0c0.801,0.058,1.558,0.503,1.989,1.25C13.086,72.904,12.685,74.436,11.49,75.125z M19.302,84.229
	c-0.977,0.978-2.565,0.978-3.542,0c-0.976-0.977-0.976-2.555,0-3.53c0.488-0.488,1.131-0.729,1.771-0.729
	c0.64,0,1.283,0.241,1.771,0.729C20.278,81.675,20.278,83.253,19.302,84.229z M8.167,50c0-0.568,0.009-1.125,0.031-1.688
	l31.261-2.969l-13.365,38.99C15.26,76.773,8.167,64.214,8.167,50z M29.208,91.011c-0.69,1.195-2.221,1.606-3.417,0.917
	c-1.195-0.691-1.607-2.222-0.917-3.417c0.475-0.821,1.343-1.272,2.229-1.25c0.403,0.011,0.814,0.118,1.188,0.333
	C29.487,88.284,29.899,89.814,29.208,91.011z M40.531,95c-0.357,1.334-1.729,2.117-3.062,1.76c-1.334-0.355-2.128-1.729-1.771-3.062
	c0.293-1.095,1.267-1.814,2.344-1.843c0.072,0,0.146,0,0.219,0c0.166,0.01,0.333,0.039,0.5,0.082
	C40.094,92.294,40.889,93.666,40.531,95z M50,98.417c-1.38,0-2.5-1.119-2.5-2.5c0-1.382,1.12-2.5,2.5-2.5c1.381,0,2.5,1.118,2.5,2.5
	C52.5,97.298,51.381,98.417,50,98.417z M62.531,96.76c-1.334,0.357-2.705-0.426-3.062-1.76c-0.355-1.333,0.438-2.706,1.771-3.062
	c0.167-0.043,0.335-0.073,0.5-0.082c1.162-0.07,2.25,0.677,2.562,1.844C64.659,95.032,63.865,96.402,62.531,96.76z M49.989,91.834
	c-8.225,0-15.886-2.381-22.354-6.48l13.062-28.541l27.083,31.062C62.383,90.414,56.35,91.834,49.989,91.834z M74.208,91.928
	c-1.196,0.689-2.726,0.278-3.416-0.917c-0.69-1.194-0.28-2.727,0.916-3.417c0.374-0.215,0.785-0.322,1.188-0.333
	c0.888-0.022,1.754,0.429,2.229,1.25C75.814,89.706,75.404,91.236,74.208,91.928z M84.238,84.229c-0.977,0.978-2.564,0.978-3.54,0
	c-0.978-0.977-0.978-2.555,0-3.53c0.487-0.488,1.131-0.729,1.771-0.729c0.641,0,1.282,0.241,1.771,0.729
	C85.216,81.675,85.216,83.253,84.238,84.229z M69.427,87.052L51.239,61.469l40.438-7.927C90.456,68.121,81.756,80.57,69.427,87.052z
	 M91.927,74.208c-0.69,1.196-2.221,1.606-3.415,0.917c-1.195-0.689-1.598-2.221-0.908-3.417c0.433-0.747,1.189-1.192,1.989-1.25
	c0.481-0.033,0.97,0.074,1.419,0.334C92.206,71.482,92.617,73.014,91.927,74.208z M96.771,62.531
	c-0.357,1.334-1.729,2.128-3.062,1.771c-1.334-0.356-2.129-1.729-1.771-3.062c0.291-1.083,1.248-1.812,2.312-1.854
	c0.246-0.011,0.499,0.017,0.75,0.083C96.333,59.825,97.128,61.197,96.771,62.531z M95.917,52.5c-0.519,0-0.997-0.157-1.396-0.428
	c-0.066-0.045-0.136-0.096-0.198-0.146c-0.433-0.355-0.736-0.857-0.854-1.427c-0.017-0.081-0.033-0.156-0.042-0.239
	c-0.007-0.084-0.01-0.174-0.01-0.261s0.003-0.176,0.01-0.261c0.128-1.26,1.195-2.239,2.49-2.239c1.38,0,2.5,1.12,2.5,2.5
	C98.417,51.381,97.297,52.5,95.917,52.5z"/>
</svg>
